<svg width="240" height="240" viewBox="0 0 240 240" fill="none" xmlns="http://www.w3.org/2000/svg">
<path fill-rule="evenodd" clip-rule="evenodd" d="M67.8797 179.187C65.474 181.639 62.9076 183.928 60.2724 186.13C57.6716 188.303 55.1684 190.651 52.4165 192.634C51.7765 193.098 51.1053 192.103 51.6077 191.578C53.9725 189.098 56.6853 186.938 59.2077 184.629C61.7137 182.328 64.3369 180.158 67.0669 178.127C67.702 177.657 68.3932 178.664 67.8797 179.187ZM45.7061 144.658C40.8645 146.418 35.9389 148.006 30.9541 149.315C25.9341 150.634 20.7573 151.266 15.8669 152.573C15.7215 152.622 15.5982 152.721 15.519 152.853C15.4398 152.984 15.4097 153.14 15.434 153.291C15.4584 153.443 15.5356 153.581 15.652 153.681C15.7685 153.781 15.9166 153.836 16.0701 153.838C21.2325 153.98 26.6093 152.657 31.5757 151.37C36.649 150.057 41.5899 148.277 46.3349 146.052C47.1205 145.68 46.5229 144.362 45.7061 144.658ZM50.1061 112.01C46.6803 110.07 43.1492 108.324 39.5293 106.777C35.8077 105.097 32.2189 103.807 28.4893 102.271C27.8557 102.01 27.3485 103.066 27.9709 103.374C31.5389 105.148 34.8405 106.986 38.5101 108.665C42.0946 110.392 45.7725 111.918 49.5269 113.236C49.6839 113.282 49.8522 113.271 50.0015 113.204C50.1508 113.137 50.2713 113.019 50.3412 112.871C50.411 112.723 50.4258 112.555 50.3826 112.397C50.3395 112.239 50.2414 112.102 50.1061 112.01ZM75.3652 122.376C75.6053 121.429 74.2452 121.028 73.7948 121.826C72.0412 124.914 71.4509 128.67 71.3101 132.173C71.1725 135.566 71.3796 139.543 73.1276 142.542C73.4916 143.167 74.6117 142.801 74.4509 142.114C73.646 138.882 73.3183 135.55 73.4781 132.223C73.6004 128.824 74.5293 125.644 75.3652 122.376ZM80.6228 109.564C78.8829 110.726 76.3028 114.589 75.9132 116.856C75.8542 117.066 75.8762 117.291 75.9748 117.486C76.0735 117.68 76.2417 117.831 76.4461 117.908C76.6504 117.984 76.8762 117.981 77.0785 117.899C77.2809 117.818 77.4452 117.663 77.5388 117.466C78.5864 115.109 79.9069 112.883 81.4733 110.834C82.2404 109.907 81.2804 109.127 80.6228 109.564ZM79.3492 165.855C74.5583 161.832 70.7314 156.785 68.1507 151.086C65.57 145.387 64.3013 139.182 64.438 132.927C64.6331 126.575 66.2394 120.345 69.1406 114.69C72.0419 109.035 76.1652 104.097 81.2116 100.233C81.3601 100.115 81.4576 99.9449 81.484 99.7573C81.5104 99.5697 81.4637 99.3791 81.3535 99.225C81.2434 99.0709 81.0782 98.965 80.8922 98.9292C80.7062 98.8934 80.5135 98.9306 80.354 99.0328C74.7135 103.072 70.1296 108.412 66.9904 114.599C63.8513 120.785 62.2494 127.638 62.3205 134.575C62.5253 150.45 70.4244 162.169 82.8092 171.068C89.6092 175.957 97.3692 181.115 99.1052 189.922C99.258 190.699 100.444 190.646 100.364 189.818C99.2533 178.296 87.2268 172.459 79.3492 165.855ZM176.715 120.358C176.366 119.656 175.138 120.191 175.44 120.927C177.239 125.281 178.121 129.958 178.03 134.668C177.939 139.378 176.877 144.018 174.911 148.298C170.025 158.648 160.93 162.48 153.973 170.551C150.469 174.617 147.573 179.751 148.082 185.296C148.093 185.466 148.168 185.625 148.293 185.741C148.418 185.856 148.583 185.919 148.753 185.916C148.923 185.914 149.085 185.846 149.207 185.726C149.328 185.607 149.398 185.445 149.404 185.275C149.741 178.663 153.324 173.743 157.764 169.43C164.771 162.62 172.308 158.443 176.664 149.08C180.856 140.073 181.164 129.334 176.715 120.358ZM183.62 180.558C180.42 178.676 176.249 176.041 172.884 174.691C172.129 174.388 171.813 175.446 172.337 175.878C175.128 178.179 179.461 180.582 182.644 182.492C186.149 184.595 189.642 186.719 193.303 188.546C193.492 188.657 193.716 188.69 193.929 188.638C194.141 188.587 194.325 188.454 194.442 188.269C194.559 188.084 194.599 187.861 194.554 187.646C194.508 187.432 194.382 187.244 194.2 187.122C190.794 184.743 187.2 182.662 183.62 180.56V180.558ZM221.784 137.822C217.59 137.406 213.375 137.222 209.16 137.273C204.895 137.204 200.632 137.166 196.367 137.282C195.628 137.302 195.567 138.546 196.315 138.599C200.516 138.899 204.724 139.052 208.935 139.17C213.198 139.413 217.471 139.419 221.735 139.188C221.898 139.167 222.048 139.089 222.159 138.968C222.27 138.847 222.334 138.69 222.34 138.526C222.346 138.362 222.293 138.201 222.191 138.072C222.09 137.943 221.945 137.854 221.784 137.822ZM199.554 103.582C203.105 102.592 206.57 101.314 209.913 99.7625C213.299 98.2842 216.521 96.455 219.526 94.3048C220.281 93.7264 219.417 92.6137 218.616 92.9841C215.336 94.5001 212.233 96.376 208.968 97.9256C205.841 99.4096 202.311 101.135 199.14 102.438C199.015 102.51 198.919 102.624 198.869 102.76C198.819 102.896 198.819 103.045 198.868 103.182C198.918 103.318 199.013 103.432 199.139 103.505C199.264 103.578 199.411 103.604 199.554 103.578V103.582ZM151.502 69.9016C142.005 62.7472 134.152 59.8808 122.478 57.3768C121.804 57.232 122.004 56.1849 122.663 56.2081C127.044 56.444 131.363 57.3503 135.47 58.8953C132.57 52.3729 127.02 47.6328 122.309 46.4792C117.012 48.6552 109.384 54.9953 107.077 57.7729C110.023 66.4129 101.21 73.5745 90.7916 69.4065C84.6241 71.9301 78.9286 75.4803 73.9468 79.9065C78.3756 81.9065 82.9949 89.7176 84.4196 96.316C90.7045 93.972 97.998 91.4536 104.857 92.1488C111.716 92.844 132.902 103.436 142.279 105.52C137.692 98.2496 141.075 80.9969 151.502 69.8953V69.9016Z" fill="#F0BC44"/>
<path fill-rule="evenodd" clip-rule="evenodd" d="M96.9285 192.754C104.221 203.294 100.368 219.05 108.73 229.218C118.322 240.883 138.082 236.163 143.719 225.166C149.347 214.185 145.607 206.526 150.873 188.587C134.262 198.423 107.983 196.571 96.9285 192.754ZM140.441 219.066C137.412 222.928 132.506 225.532 127.933 227.048C123.217 228.731 118.137 229.118 113.22 228.168C113.077 228.126 112.954 228.034 112.872 227.908C112.791 227.783 112.757 227.632 112.777 227.484C112.797 227.336 112.87 227.2 112.981 227.1C113.093 227.001 113.237 226.945 113.386 226.942C118.141 227.245 122.909 226.588 127.405 225.011C131.899 223.503 136.055 221.129 139.636 218.023C140.272 217.505 140.859 218.534 140.441 219.066ZM142.384 208.943C139.162 213.355 134.371 215.998 129.172 217.454C125.515 218.478 114.548 220.077 110.664 218.989C110.04 218.814 110.104 217.803 110.688 217.808C116.59 217.694 122.462 216.928 128.196 215.524C133.133 214.23 137.645 211.663 141.28 208.08C141.833 207.514 142.86 208.294 142.384 208.943ZM142.411 198.182C142.985 197.823 143.824 198.548 143.281 199.128C139.681 202.973 132.229 206.168 127.16 207.504C121.238 209.139 115.03 209.46 108.97 208.445C108.156 208.302 108.41 207.143 109.201 207.207C115.072 207.717 120.987 207.19 126.676 205.651C133.408 203.76 137.001 201.557 142.411 198.182ZM140.155 121.846C135.564 119.905 133.521 121.622 132.297 126.046C129.997 134.387 128.651 142.962 128.285 151.607C123.324 152.484 118.269 152.694 113.252 152.234C112.245 147.72 108.836 133.246 106.292 129.634C104.627 127.266 101.978 126.958 99.7117 128.661C97.2717 130.494 93.2317 137.832 91.8253 140.882C89.8253 145.212 90.9741 147.49 95.1461 149.376C100.369 151.731 105.923 153.268 111.613 153.936C112.82 159.446 113.786 164.916 114.488 170.519C115.239 176.509 115.704 182.759 116.176 188.796C116.187 188.951 116.257 189.097 116.372 189.202C116.488 189.307 116.639 189.363 116.795 189.359C116.951 189.355 117.099 189.291 117.209 189.181C117.319 189.07 117.382 188.921 117.385 188.766C117.518 182.519 117.172 176.272 116.352 170.078C115.682 164.737 114.779 159.406 113.663 154.138C118.519 154.549 123.407 154.356 128.215 153.563C127.905 164.292 129.111 175.011 131.797 185.403C132.085 186.497 133.748 186.004 133.477 184.91C130.923 174.554 129.78 163.9 130.08 153.238C136.24 152.01 147.228 148.313 151.365 143.186C155.099 138.558 153.108 133.015 149.594 128.866C147.03 125.83 143.8 123.428 140.155 121.846ZM97.6173 148.461C92.8573 146.519 91.3157 145.841 94.0021 140.648C95.4333 137.882 98.1717 132.749 100.296 130.648C101.472 129.487 103.067 128.888 104.332 130.254C106.572 132.679 110.358 148.36 111.192 151.99C106.534 151.405 101.971 150.219 97.6173 148.461ZM149.961 141.901C146.508 146.55 135.863 150.041 130.16 151.247C130.493 144.154 131.956 132.192 134.489 125.236C135.289 123.049 136.451 122.636 138.649 123.355C143.269 124.87 148.718 129.536 150.685 133.906C151.319 135.175 151.587 136.594 151.459 138.006C151.331 139.418 150.813 140.767 149.961 141.901ZM100.852 36.9695C98.5277 37.8327 98.2045 40.4719 98.7477 42.6807C98.3425 42.6375 97.9329 42.6871 97.5498 42.8257C97.1667 42.9643 96.8201 43.1883 96.5365 43.4807C95.4541 41.2799 92.9493 39.3703 90.5301 40.7439C88.4925 41.9007 88.3997 44.9735 88.9669 46.9679C88.0069 47.3519 86.8285 47.5567 85.8109 47.9535C85.6874 48.0141 85.5895 48.1167 85.535 48.243C85.4804 48.3692 85.4727 48.5108 85.5132 48.6422C85.5537 48.7737 85.6397 48.8863 85.7559 48.96C85.8721 49.0336 86.0107 49.0634 86.1469 49.0439C87.1557 48.8583 88.3949 48.4839 89.4269 48.2055C90.5037 50.5527 92.6973 52.7839 95.4717 51.3719C98.2333 49.9671 97.9437 47.2295 97.0653 44.7463C97.296 44.4188 97.6218 44.1702 97.9986 44.0341C98.3754 43.898 98.7849 43.8811 99.1717 43.9855C100.004 46.0999 102.004 48.9407 104.624 47.6727C107.245 46.4047 106.764 42.9527 106.025 40.7271C105.287 38.5015 103.426 36.0151 100.852 36.9695ZM94.9781 50.1903C92.7093 51.3903 91.0117 49.0071 90.3661 47.1615C89.8309 45.6287 89.5725 42.8999 91.1189 41.8855C93.1429 40.5575 95.0917 43.1471 95.7237 44.7999C96.4285 46.6447 97.0813 49.0799 94.9781 50.1903ZM104.114 46.5167C101.937 47.4311 100.74 44.8503 100.1 43.2367C99.4341 41.5623 99.2421 38.8231 101.278 38.1391C103.296 37.4607 104.516 39.9695 104.991 41.4991C105.484 43.0927 105.812 45.8031 104.114 46.5167ZM93.5285 47.2423C93.8245 47.8935 93.7869 48.3711 93.4101 48.6823C92.9053 49.1055 92.4005 48.7623 92.0821 48.2167C91.8605 47.8367 91.6221 46.9551 92.2101 46.5895C92.7109 46.2815 93.3301 46.8063 93.5285 47.2423ZM103.208 43.8983C103.28 44.1248 103.288 44.3664 103.231 44.597C103.175 44.8276 103.056 45.0383 102.888 45.2063C102.376 45.5439 101.815 44.9615 101.662 44.4695C101.475 43.8695 101.508 43.2167 101.902 42.9559C102.524 42.5495 103.074 43.3927 103.209 43.8983H103.208ZM100.655 49.9999C100.983 49.6919 101.096 49.4663 100.806 49.0911C100.253 48.4812 99.6226 47.9463 98.9309 47.4999C98.3957 47.1239 98.9765 46.2399 99.5389 46.5399C100.171 46.8882 100.755 47.3186 101.275 47.8199C102.665 49.1383 102.483 50.3423 100.944 51.4271C100.33 51.9067 99.5864 52.1915 98.8093 52.2447C98.6921 52.2195 98.5846 52.1611 98.4996 52.0765C98.4147 51.992 98.3558 51.8848 98.33 51.7677C98.3042 51.6507 98.3126 51.5287 98.3542 51.4162C98.3957 51.3038 98.4687 51.2057 98.5645 51.1335C99.0565 50.7391 99.9565 50.6559 100.655 49.9999ZM96.2293 55.0007C97.3035 55.106 98.3843 54.8804 99.3269 54.3543C100.067 53.9439 100.441 54.8783 99.9101 55.2903C98.7835 55.9768 97.4754 56.3059 96.1581 56.2343C94.8566 56.2244 93.5919 55.8017 92.5461 55.0271C92.0509 54.6135 92.5245 53.6871 93.1373 54.0119C94.0641 54.6051 95.1301 54.9455 96.2293 54.9991V55.0007ZM93.5589 60.0127C96.9341 60.3639 100.788 60.7519 103.639 58.5159C107.124 55.7871 105.788 52.2383 104.54 49.3839C104.201 48.6079 105.275 48.2999 105.576 48.9103C107.341 52.4871 108.075 56.4135 104.652 59.2679C101.488 61.9079 97.2429 61.6783 93.4045 61.1303C92.7725 61.0399 92.9277 59.9455 93.5589 60.0111V60.0127ZM125.497 44.6911C128.63 42.4447 131.913 40.3575 133.767 36.8447C135.792 33.0047 135.945 28.5383 136.066 24.2911C134.633 24.4337 133.201 24.0077 132.079 23.1048C130.956 22.2019 130.234 20.8945 130.066 19.4639C130.048 19.3198 130.084 19.174 130.167 19.055C130.251 18.936 130.375 18.8524 130.517 18.8205C130.659 18.7886 130.808 18.8107 130.934 18.8825C131.06 18.9543 131.155 19.0706 131.2 19.2087C131.341 20.2794 131.879 21.2581 132.708 21.9507C133.536 22.6433 134.595 22.9993 135.673 22.9479C136.977 22.8727 137.45 22.9951 137.42 24.0679C137.291 28.6055 137.104 33.2999 134.981 37.4199C133.096 41.0807 129.612 43.5903 126.172 45.6783C125.593 46.0311 124.948 45.0831 125.497 44.6895V44.6911ZM137.137 6.11592C136.674 5.63592 137.377 4.83592 137.911 5.23592C139.366 6.3934 140.498 7.90594 141.199 9.62792C141.82 11.0815 142.404 13.5391 142.064 15.0935C142.012 15.2346 141.916 15.3552 141.79 15.437C141.664 15.5188 141.515 15.5575 141.365 15.5472C141.216 15.5369 141.073 15.4782 140.96 15.3799C140.846 15.2816 140.767 15.1491 140.736 15.0023C140.525 13.0503 140.709 12.1319 139.917 10.1647C139.266 8.64485 138.321 7.26842 137.137 6.11432V6.11592ZM143.68 15.0959C144.38 13.4629 144.797 11.723 144.913 9.95032C144.968 8.1723 144.713 6.39831 144.159 4.70792C143.972 4.04872 144.932 3.71832 145.27 4.30312C146.079 5.70152 146.351 8.38312 146.294 10.0015C146.282 11.9665 145.803 13.9005 144.898 15.6447C144.81 15.7795 144.676 15.8783 144.522 15.9235C144.367 15.9686 144.201 15.957 144.055 15.8908C143.908 15.8246 143.789 15.7082 143.721 15.5624C143.652 15.4167 143.638 15.2513 143.68 15.0959ZM145.652 17.5183C146.769 16.6322 147.725 15.5603 148.478 14.3495C149.216 13.098 149.775 11.7487 150.137 10.3415C150.167 10.1908 150.255 10.0579 150.382 9.97128C150.509 9.88466 150.665 9.85121 150.817 9.87809C150.968 9.90497 151.103 9.99004 151.192 10.1151C151.282 10.2401 151.318 10.3952 151.295 10.5471C151.059 12.1387 150.496 13.6641 149.641 15.0271C148.825 16.3841 147.781 17.5909 146.556 18.5951C146.801 22.3015 146.936 26.0191 147.103 29.7295C147.668 42.3055 146.914 46.9719 136.076 55.3751C135.356 55.9351 134.556 54.7695 135.27 54.2143C146.108 45.7927 146.177 41.3695 145.677 29.0271C145.536 25.5143 145.352 22.0007 145.284 18.4863C145.278 18.3087 145.308 18.1317 145.372 17.9658C145.436 17.7999 145.532 17.6483 145.655 17.5199L145.652 17.5183ZM81.2005 58.8719C75.0613 66.3391 71.5253 73.6855 71.9797 83.5591C71.9991 83.7182 71.9545 83.8786 71.8557 84.0048C71.7569 84.1311 71.612 84.2129 71.4529 84.2323C71.2937 84.2517 71.1334 84.2071 71.0072 84.1083C70.8809 84.0095 70.7991 83.8646 70.7797 83.7055C69.4997 74.3983 74.1269 64.8687 80.1093 58.0255C80.6973 57.3599 81.7701 58.1823 81.2005 58.8719ZM81.8069 96.0175C78.4205 97.8903 71.6837 99.8807 67.8173 100.451C47.1397 103.505 53.2653 80.9695 59.7037 70.6111C63.1095 65.136 66.9904 59.971 71.3013 55.1759C69.4481 50.1818 69.2949 44.7157 70.8653 39.6255C71.1309 38.7967 72.4461 38.5423 72.1205 40.0543C70.8205 46.0887 71.0237 48.7743 72.4501 54.3903C72.5943 54.727 72.637 55.0986 72.5727 55.4592C72.5085 55.8198 72.3401 56.1538 72.0885 56.4199C66.7694 61.848 62.3414 68.0825 58.9685 74.8927C54.0085 85.2855 50.9397 101.773 68.2189 98.9367C73.0637 98.1423 76.7229 96.3767 81.2469 94.9991C81.8405 94.8191 82.4245 95.6799 81.8093 96.0175H81.8069ZM190.975 115.182C192.188 117.85 196.427 126.155 196.437 128.569C196.451 131.812 193.336 133.68 190.747 131.165C187.603 128.112 186.241 124.72 182.213 121.432C179.718 119.395 176.425 117.89 174.66 115.183C173.987 114.217 173.567 113.097 173.439 111.926C173.311 110.755 173.479 109.571 173.927 108.482C174.223 107.752 175.447 108.115 175.256 108.882C174.988 109.828 174.929 110.822 175.085 111.793C175.24 112.763 175.606 113.689 176.156 114.504C177.56 116.442 181.116 118.281 183.187 119.979C187.358 123.394 188.475 125.979 191.656 129.561C193.224 131.326 194.749 130.594 194.756 128.548C194.76 126.714 190.587 118.819 189.31 116.101C188.222 113.781 186.596 110.926 186.03 108.542C185.838 107.742 186.997 106.755 187.456 107.992C188.45 110.682 189.9 112.814 190.977 115.182H190.975ZM224.567 48.3351C224.198 52.4575 219.923 68.8151 218.942 71.9175C217.124 77.6703 211.605 77.0911 207.154 74.9839C206.368 74.6119 206.881 73.3727 207.694 73.5807C211.037 74.4343 215.75 75.8439 217.1 71.3695C218.464 66.8431 222.76 52.3295 222.866 48.2999C222.899 47.0695 222.121 46.6199 221.175 47.3567C217.975 49.8367 213.582 57.6199 211.409 61.2295C211.066 61.8007 210.016 61.4695 210.264 60.7895C211.501 57.4023 217.39 47.6647 220.543 45.7703C220.964 45.4896 221.457 45.3373 221.963 45.332C222.469 45.3267 222.965 45.4685 223.392 45.7403C223.819 46.0121 224.157 46.4021 224.366 46.8628C224.575 47.3235 224.646 47.835 224.569 48.3351H224.567ZM171.886 106.56C172.381 102.338 172.632 98.0909 172.639 93.8399C176.163 85.7543 178.983 76.3631 181.367 67.8959C185.019 69.0248 188.56 70.4864 191.945 72.2623C191.918 79.0919 190.42 102.907 189.164 105.001C184.917 107.256 174.664 106.822 171.886 106.56ZM208.005 59.1527C207.919 64.4495 204.099 73.8463 202.885 76.4847C199.384 73.8551 187.864 68.1823 181.045 65.9791C180.826 65.9085 180.587 65.9277 180.381 66.0327C180.176 66.1376 180.02 66.3197 179.948 66.5391C178.126 73.1791 176.221 79.8191 173.831 86.2807C169.689 97.4727 163.38 107.701 145.06 103.961C134.74 83.9039 171.148 45.2119 176.58 44.0791C183.347 42.6663 203.84 55.6799 208.005 59.1543V59.1527ZM92.6557 67.3127C91.9685 64.9431 87.3757 58.4951 85.7957 56.8039C86.1532 56.5532 86.442 56.2168 86.6356 55.8254C86.8292 55.434 86.9214 55.0002 86.9037 54.5639C86.8421 53.9127 85.8293 53.7151 85.6989 54.4359C85.6715 54.7943 85.5494 55.139 85.345 55.4346C85.1406 55.7303 84.8613 55.9662 84.5357 56.1184C84.2101 56.2705 83.8498 56.3334 83.4919 56.3005C83.134 56.2676 82.7913 56.1401 82.4989 55.9311C80.8861 54.9119 79.7477 52.0471 80.5789 50.2103C80.6866 50.0008 80.8382 49.817 81.0234 49.6714C81.2086 49.5259 81.423 49.4219 81.652 49.3667C81.881 49.3115 82.1192 49.3063 82.3504 49.3516C82.5816 49.3968 82.8003 49.4913 82.9917 49.6287C83.1149 49.7062 83.2605 49.7403 83.4054 49.7258C83.5502 49.7114 83.6861 49.649 83.7917 49.5487C84.92 48.0912 85.7328 46.415 86.1785 44.6265C86.6241 42.8381 86.6929 40.9764 86.3805 39.1599C90.6567 38.8693 94.8311 37.7235 98.6565 35.7903C103.254 33.4647 106.68 30.8663 105.337 24.3047C104.537 20.3847 101.325 16.1903 96.2405 17.3823C89.8269 18.8855 78.3325 29.4383 77.7893 35.8023C75.6157 36.2895 73.8093 37.3351 73.4125 39.6775C72.7005 43.8839 75.9533 48.8071 79.0829 51.2903C78.9869 54.3607 81.0221 58.2647 84.7029 57.3943C87.2697 60.7305 89.5895 64.2497 91.6437 67.9239C92.0005 68.5695 92.8285 67.9103 92.6557 67.3127ZM87.8333 25.7031C89.7747 23.4378 92.2243 21.6637 94.9821 20.5255C97.3261 19.5343 101.255 19.4111 101.559 22.6727C101.556 22.8253 101.503 22.9727 101.409 23.0927C101.315 23.2126 101.184 23.2986 101.036 23.3377C100.889 23.3767 100.733 23.3667 100.591 23.3091C100.45 23.2514 100.331 23.1494 100.253 23.0183C99.1581 20.5719 96.4133 21.4351 94.5213 22.3583C92.3719 23.46 90.391 24.8632 88.6389 26.5255C88.5286 26.6259 88.3837 26.6796 88.2346 26.6754C88.0856 26.6711 87.944 26.6092 87.8396 26.5027C87.7353 26.3961 87.6763 26.2533 87.6751 26.1042C87.6739 25.9551 87.7306 25.8113 87.8333 25.7031ZM131.025 15.2975C131.25 14.6289 131.634 14.0246 132.143 13.5362C132.652 13.0478 133.272 12.6898 133.95 12.4927C134.627 12.2956 135.342 12.2653 136.034 12.4043C136.726 12.5433 137.373 12.8476 137.922 13.2911C138.664 13.8733 139.191 14.6853 139.421 15.5996C139.651 16.5139 139.57 17.4786 139.192 18.3423C139.131 18.4899 139.019 18.6106 138.876 18.682C138.733 18.7535 138.569 18.7711 138.415 18.7315C138.26 18.692 138.124 18.5979 138.033 18.4666C137.942 18.3353 137.902 18.1756 137.919 18.0167C138.338 16.2727 137.896 14.5703 136.079 13.9087C135.313 13.661 134.482 13.7132 133.753 14.0547C133.025 14.3963 132.453 15.0017 132.153 15.7487C132.093 15.8983 131.977 16.018 131.829 16.0814C131.68 16.1449 131.513 16.1469 131.364 16.0871C131.214 16.0273 131.094 15.9105 131.031 15.7624C130.967 15.6143 130.965 15.4471 131.025 15.2975Z" fill="#202020"/>
</svg>
