<svg width="17" height="16" viewBox="0 0 17 16" fill="none" xmlns="http://www.w3.org/2000/svg">
<path fill-rule="evenodd" clip-rule="evenodd" d="M8.47505 10.7838L10.6791 8.57979C11.2878 7.97107 11.4387 7.04113 11.0537 6.27115L10.9288 6.02139C10.5438 5.25141 10.6948 4.32147 11.3035 3.71275L14.0363 0.979943C14.2315 0.784681 14.5481 0.784681 14.7434 0.979943C14.7814 1.01794 14.813 1.06182 14.837 1.10989L15.941 3.31784C16.7856 5.00695 16.4545 7.04698 15.1192 8.38234L9.12034 14.3812C7.6668 15.8347 5.51678 16.3423 3.56665 15.6922L1.15217 14.8874C0.8902 14.8001 0.74862 14.5169 0.835944 14.2549C0.860491 14.1813 0.901845 14.1144 0.956732 14.0595L3.608 11.4082C4.21672 10.7995 5.14667 10.6486 5.91665 11.0336L6.16641 11.1585C6.93638 11.5434 7.86633 11.3925 8.47505 10.7838Z" fill="#F2EFE7"/>
</svg>
