<svg width="72" height="72" viewBox="0 0 72 72" fill="none" xmlns="http://www.w3.org/2000/svg">
<path d="M28.52 53.46C28.6133 55.46 28.7967 57.46 29.07 59.46C29.0934 59.9734 29.2367 60.4742 29.4885 60.9222C29.7403 61.3702 30.0936 61.7531 30.52 62.04C31.3845 62.4601 32.3213 62.7112 33.28 62.78C35.2653 63.0933 37.2845 63.1303 39.28 62.89C40.28 62.76 41.49 62.71 42.28 61.94C42.8241 61.1424 43.0782 60.1823 43 59.22C43.1483 57.3038 43.1917 55.3809 43.13 53.46C43.1223 53.0645 42.9618 52.6875 42.6822 52.4078C42.4025 52.1281 42.0254 51.9676 41.63 51.96C41.233 51.9626 40.853 52.1215 40.5722 52.4022C40.2915 52.6829 40.1326 53.0629 40.13 53.46C40.1867 55.2538 40.1533 57.0494 40.03 58.84C40.03 59.26 40.03 59.7 39.93 60.11C39.93 59.98 39.93 60 39.93 60.19C40.04 60.04 40.16 59.9 40.27 59.76C40.27 59.76 39.73 59.87 39.67 59.88C38.7178 60.0331 37.7544 60.1067 36.79 60.1C35.8264 60.1167 34.8631 60.0532 33.91 59.91C33.42 59.83 32.91 59.74 32.45 59.62C32.45 59.62 32.05 59.54 32.16 59.54C31.95 59.4 31.96 59.43 32.16 59.62C32.16 59.7133 32.14 59.6633 32.1 59.47C31.86 57.47 31.63 55.47 31.54 53.47C31.5244 53.0729 31.355 52.6975 31.0676 52.4232C30.7802 52.1488 30.3973 51.9971 30 52C29.603 52.0026 29.223 52.1615 28.9422 52.4422C28.6615 52.7229 28.5026 53.1029 28.5 53.5L28.52 53.46Z" fill="#202020"/>
<path d="M17.3996 23.2702C16.8172 23.4644 16.3148 23.8447 15.9697 24.3524C15.6245 24.8602 15.4559 25.4672 15.4896 26.0802C15.5692 26.7444 15.8141 27.3781 16.202 27.9231C16.5898 28.4682 17.1082 28.9073 17.7096 29.2002C18.0126 29.3868 18.3551 29.4998 18.7096 29.5302C18.7958 29.537 18.8825 29.5266 18.9646 29.4994C19.0467 29.4723 19.1225 29.4291 19.1877 29.3723C19.2529 29.3155 19.3061 29.2462 19.3442 29.1686C19.3823 29.091 19.4045 29.0066 19.4096 28.9202C19.4096 28.8195 19.3695 28.7228 19.2983 28.6515C19.227 28.5803 19.1304 28.5402 19.0296 28.5402C18.9305 28.5428 18.8364 28.584 18.7673 28.655C18.6982 28.726 18.6595 28.8212 18.6596 28.9202C18.6596 28.5502 18.8196 28.8502 18.6596 28.7802C18.6164 28.7746 18.5727 28.7746 18.5296 28.7802C18.3896 28.7302 18.2496 28.6602 18.1196 28.6002C17.8476 28.4584 17.5898 28.291 17.3496 28.1002C16.8854 27.7051 16.5394 27.1895 16.3496 26.6102C16.1757 26.0981 16.2091 25.5383 16.4427 25.0505C16.6763 24.5627 17.0916 24.1858 17.5996 24.0002C17.6951 23.9737 17.7761 23.9103 17.8249 23.8241C17.8736 23.7378 17.8861 23.6357 17.8596 23.5402C17.8331 23.4448 17.7697 23.3637 17.6834 23.315C17.5972 23.2662 17.4951 23.2537 17.3996 23.2802V23.2702Z" fill="#202020"/>
<path d="M32.4691 24.08C32.4691 24.13 32.4691 24.08 32.5291 24.08H32.6591C32.7677 24.0362 32.8824 24.0092 32.9991 24C33.1048 24.0051 33.2064 24.0423 33.2903 24.1066C33.3743 24.1709 33.4367 24.2593 33.4691 24.36C33.6924 25.005 33.7133 25.7028 33.5291 26.36C33.3924 27.0248 33.0058 27.6118 32.4491 28C32.1831 28.1697 31.8823 28.2775 31.5691 28.3156C31.2559 28.3537 30.9381 28.321 30.6391 28.22C30.1791 28.05 29.9891 28.78 30.4391 28.94C31.1164 29.1478 31.8455 29.1092 32.4971 28.831C33.1486 28.5528 33.6807 28.0529 33.9991 27.42C34.3413 26.7538 34.4968 26.0074 34.4491 25.26C34.4491 24.61 34.2891 23.74 33.6491 23.4C33.3578 23.2524 33.0269 23.2019 32.7048 23.2559C32.3827 23.3099 32.0864 23.4655 31.8591 23.7C31.8339 23.7419 31.8172 23.7885 31.8101 23.8369C31.803 23.8853 31.8055 23.9347 31.8176 23.9821C31.8297 24.0296 31.8511 24.0741 31.8805 24.1133C31.91 24.1524 31.9469 24.1852 31.9891 24.21C32.0765 24.2565 32.178 24.269 32.2741 24.245C32.3702 24.221 32.4539 24.1622 32.5091 24.08H32.4691Z" fill="#202020"/>
<path d="M35.83 49.8998C36.8186 49.8998 37.62 49.0984 37.62 48.1098C37.62 47.1212 36.8186 46.3198 35.83 46.3198C34.8415 46.3198 34.04 47.1212 34.04 48.1098C34.04 49.0984 34.8415 49.8998 35.83 49.8998Z" fill="#202020"/>
<path d="M20.7301 30.8999C20.7301 30.8999 21.1501 37.5299 20.4101 38.2099C20.0525 37.9994 19.6563 37.8629 19.245 37.8084C18.8337 37.7539 18.4156 37.7825 18.0155 37.8925C17.6155 38.0025 17.2416 38.1918 16.916 38.449C16.5904 38.7062 16.3198 39.0262 16.1201 39.3899" stroke="#202020" stroke-linecap="round" stroke-linejoin="round"/>
<path d="M17.61 18.0901C17.61 18.0901 17.4 33.9201 24.74 33.6901C32.08 33.4601 32.3 20.1201 32.3 20.1201C32.3 20.1201 22.78 16.2801 21.67 13.5601C21.67 13.5601 19 17.6301 17.61 18.0901Z" fill="#F2EFE7" stroke="#202020" stroke-linecap="round" stroke-linejoin="round"/>
<path d="M18.2004 23.4999C18.2004 23.4999 10.6604 18.2299 14.2004 13.4299C14.949 12.3535 15.9377 11.4661 17.0884 10.8378C18.2391 10.2095 19.5202 9.8576 20.8304 9.8099C22.5487 9.74528 24.26 9.55477 25.9504 9.2399C29.7504 8.4799 36.7404 7.9099 39.1004 10.1799C42.6104 13.5499 32.4804 21.1799 32.4804 21.1799C32.4804 21.1799 23.3004 17.6999 21.8304 14.1799C21.8304 14.1799 19.4304 16.8599 17.8304 17.5799L18.2004 23.4999Z" fill="#202020"/>
<path d="M20.7607 18.6398C20.7607 18.6398 25.2607 15.9698 25.1607 26.4598" stroke="#202020" stroke-linecap="round" stroke-linejoin="round"/>
<path d="M21.5702 24.1701C22.2108 24.1701 22.7302 23.6507 22.7302 23.0101C22.7302 22.3694 22.2108 21.8501 21.5702 21.8501C20.9295 21.8501 20.4102 22.3694 20.4102 23.0101C20.4102 23.6507 20.9295 24.1701 21.5702 24.1701Z" fill="#202020"/>
<path d="M28.6102 23.8898C29.2508 23.8898 29.7702 23.3705 29.7702 22.7298C29.7702 22.0892 29.2508 21.5698 28.6102 21.5698C27.9695 21.5698 27.4502 22.0892 27.4502 22.7298C27.4502 23.3705 27.9695 23.8898 28.6102 23.8898Z" fill="#202020"/>
<path d="M22.7003 29.16C22.7003 29.16 25.0703 30.46 28.0103 28.25" stroke="#202020" stroke-linecap="round" stroke-linejoin="round"/>
<path d="M20.4105 38.21C20.4022 39.8407 20.553 41.4684 20.8605 43.07" stroke="#202020" stroke-linecap="round" stroke-linejoin="round"/>
<path d="M29.41 38.21C29.3209 39.8451 29.1002 41.4703 28.75 43.07" stroke="#202020" stroke-linecap="round" stroke-linejoin="round"/>
<path d="M16.1499 39.3901C16.1499 39.3901 15.4699 42.3901 17.2399 43.9901" stroke="#202020" stroke-linecap="round" stroke-linejoin="round"/>
<path d="M20.7599 38.2801C20.7599 38.2801 25.6599 39.8201 29.1999 37.8701C29.1999 37.8701 28.7999 42.6301 28.1099 43.0701H21.5699C21.5699 43.0701 20.4799 42.0001 20.7599 38.2801Z" fill="#202020"/>
<path d="M20.8907 36.7901L25.1607 34.0001C25.1607 34.0001 20.7807 32.5201 20.7607 32.1401L20.8907 36.7901Z" fill="#202020"/>
<path d="M33.37 33.1899C35.49 33.4899 37.76 33.1899 39.17 31.3899C40.58 29.5899 40.48 27.5399 41.03 25.5699C42.34 20.8499 47.41 18.0499 52.13 18.8399C56.85 19.6299 61.51 23.6699 61.73 28.7299C61.84 31.4199 60.43 33.4699 58.39 35.0899C56.35 36.7099 53.81 38.2199 51.02 38.2899C47.8952 38.2155 44.8591 37.2359 42.28 35.4699C41.106 34.6859 39.8482 34.0352 38.53 33.5299C36.987 33.1212 35.4969 32.5339 34.09 31.7799C33.09 31.1499 32.2 32.7099 33.18 33.3299C34.3909 34.0399 35.6929 34.5815 37.05 34.9399C38.5723 35.4387 40.0242 36.131 41.37 36.9999C43.778 38.5871 46.5121 39.6124 49.37 39.9999C52.1879 40.2811 55.016 39.5741 57.37 37.9999C59.59 36.5899 61.84 34.8299 62.89 32.3399C64.89 27.5999 62.06 22.2499 58.17 19.4499C53.93 16.4099 48 15.9999 43.67 19.0499C41.4633 20.5763 39.8773 22.8436 39.2 25.4399C39.019 26.9058 38.6562 28.3435 38.12 29.7199C37.27 31.3199 35.52 31.7199 33.85 31.4499C32.71 31.2899 32.22 33.0299 33.37 33.1899Z" fill="#202020"/>
<path d="M1.25027 12.18C1.09027 19.28 0.890267 26.39 0.710267 33.49C0.620267 37.11 0.310267 40.81 0.560267 44.43C0.770267 47.43 1.76027 50.51 4.56027 52.04C7.56027 53.66 11.3003 53.26 14.5603 53.27L27.0003 53.3L52.1603 53.36C56.1603 53.36 60.3503 53.63 64.3903 53.36C65.827 53.3228 67.2114 52.8127 68.3288 51.9087C69.4461 51.0047 70.234 49.7573 70.5703 48.36C71.4903 45.13 71.1003 41.51 71.0903 38.19L71.0303 25.77C71.0303 21.63 71.0303 17.4866 71.0303 13.34C71.1409 11.731 70.8631 10.1191 70.2203 8.63996C69.4751 7.28215 68.3581 6.1651 67.0003 5.41996C65.4357 4.70523 63.7154 4.39902 62.0003 4.52996C60.0003 4.52996 58.0003 4.46996 56.0003 4.41996C52.0003 4.3333 48.0003 4.21996 44.0003 4.07996C36.0003 3.83996 28.0003 3.59996 20.0003 3.60996C16.1103 3.60996 12.1103 3.46996 8.23027 3.83996C6.98797 3.93684 5.79105 4.34966 4.75319 5.03924C3.71532 5.72882 2.87095 6.67226 2.30027 7.77996C1.66647 9.16177 1.32597 10.66 1.30027 12.18C1.19027 14.11 4.19027 14.1 4.30027 12.18C4.42027 9.91996 5.30027 7.57996 7.71027 6.95996C9.10623 6.71655 10.5253 6.63267 11.9403 6.70996C13.8403 6.70996 15.7303 6.62996 17.6203 6.61996C24.8403 6.55996 32.0503 6.72996 39.2703 6.93996C46.4903 7.14996 53.9903 7.40996 61.3603 7.51996C62.8003 7.51996 64.3603 7.33996 65.6803 8.08996C66.3149 8.43217 66.8574 8.92285 67.2614 9.52011C67.6654 10.1174 67.9189 10.8035 68.0003 11.52C68.1703 13.18 68.0603 14.88 68.0703 16.52V22.24C68.0703 29.59 68.3703 36.98 68.1503 44.33C68.0903 46.48 67.8003 49.61 65.2903 50.24C63.5979 50.4834 61.8828 50.5271 60.1803 50.37H54.4403L31.7703 50.31H20.3203C16.7703 50.31 13.1903 50.43 9.65027 50.26C8.1161 50.3095 6.60618 49.868 5.34027 49C4.27595 47.9351 3.65733 46.5048 3.61027 45C3.20027 41.45 3.61027 37.72 3.70027 34.16C3.88027 26.84 4.09027 19.53 4.25027 12.16C4.25027 10.23 1.25027 10.23 1.25027 12.16V12.18Z" fill="#202020"/>
<path d="M3.45043 45.3102C20.2504 45.6302 37.1104 46.3102 53.9104 45.6702C58.6904 45.4702 63.4604 45.1402 68.2104 44.6702C70.1104 44.4602 70.1304 41.4602 68.2104 41.6702C51.4604 43.4702 34.5904 42.9402 17.7804 42.6202L3.45043 42.3102C1.52043 42.3102 1.52043 45.3102 3.45043 45.3102Z" fill="#202020"/>
<path d="M20.19 66.7299C19.8342 66.7194 19.4911 66.5955 19.2107 66.3762C18.9303 66.157 18.7273 65.8539 18.6312 65.5111C18.5352 65.1683 18.5512 64.8039 18.6769 64.4709C18.8026 64.1378 19.0315 63.8537 19.33 63.6599C22.97 61.2499 27.51 58.2199 34.75 58.2999C41.2003 58.537 47.4927 60.3608 53.07 63.6099C53.3736 63.8025 53.607 64.088 53.7354 64.4238C53.8637 64.7597 53.8803 65.128 53.7825 65.474C53.6848 65.82 53.478 66.1253 53.1929 66.3444C52.9078 66.5634 52.5595 66.6846 52.2 66.6899C44.47 66.8399 29.45 67.0599 20.19 66.7299Z" fill="#202020"/>
<path d="M46.2605 27.64L55.0005 27.51C55.2008 27.51 55.3928 27.4305 55.5344 27.2889C55.676 27.1473 55.7555 26.9552 55.7555 26.755C55.7555 26.5548 55.676 26.3627 55.5344 26.2211C55.3928 26.0795 55.2008 26 55.0005 26L46.3105 26.13C46.1116 26.13 45.9209 26.209 45.7802 26.3497C45.6396 26.4903 45.5605 26.6811 45.5605 26.88C45.5605 27.0789 45.6396 27.2697 45.7802 27.4103C45.9209 27.551 46.1116 27.63 46.3105 27.63L46.2605 27.64Z" fill="#202020"/>
<path d="M44.75 31.4199H56.27C56.4689 31.4199 56.6597 31.3409 56.8003 31.2003C56.941 31.0596 57.02 30.8688 57.02 30.6699C57.02 30.471 56.941 30.2802 56.8003 30.1396C56.6597 29.9989 56.4689 29.9199 56.27 29.9199H44.75C44.5511 29.9199 44.3603 29.9989 44.2197 30.1396C44.079 30.2802 44 30.471 44 30.6699C44 30.8688 44.079 31.0596 44.2197 31.2003C44.3603 31.3409 44.5511 31.4199 44.75 31.4199Z" fill="#202020"/>
<path d="M28.7405 31.63C28.7405 32.69 28.6805 33.76 28.7405 34.83C28.7185 35.7639 28.7821 36.6978 28.9305 37.62C28.9468 37.759 28.992 37.893 29.0633 38.0134C29.1346 38.1338 29.2304 38.2378 29.3444 38.3189C29.4585 38.4 29.5883 38.4562 29.7254 38.4839C29.8625 38.5117 30.0039 38.5104 30.1405 38.48C30.6105 38.37 31.0405 38.1 31.5105 37.99C32.0333 37.84 32.5878 37.84 33.1105 37.99C33.5197 38.1347 33.8706 38.4084 34.1105 38.77C34.3305 39.12 34.3105 39.55 34.5405 39.89C34.9405 40.5 35.8605 40.54 36.5405 40.75C38.3446 41.3407 40.0353 42.2334 41.5405 43.39C41.9305 43.68 42.3005 43.03 41.9205 42.74C40.6099 41.7458 39.1657 40.9412 37.6305 40.35C37.2305 40.19 36.8305 40.05 36.4205 39.93C36.0105 39.81 35.4205 39.76 35.1305 39.34C34.9605 39.09 34.9605 38.68 34.7905 38.34C34.6276 38.0887 34.421 37.8686 34.1805 37.69C33.6432 37.2806 32.9861 37.0593 32.3105 37.06C31.9355 37.06 31.5621 37.1105 31.2005 37.21C30.7905 37.31 30.0605 37.77 29.6705 37.41C29.5705 37.32 29.6105 36.87 29.6005 36.71L29.5405 35.97C29.5405 35.48 29.4905 34.97 29.4805 34.49C29.4805 33.49 29.4805 32.49 29.4805 31.54C29.4805 31.05 28.7505 31.06 28.7305 31.54L28.7405 31.63Z" fill="#202020"/>
<path d="M34.3001 39.1999C34.4136 39.8883 34.3864 40.5924 34.2201 41.2699C34.1037 41.9502 33.7988 42.5842 33.3401 43.0999C33.2879 43.1731 33.2634 43.2625 33.2708 43.352C33.2783 43.4416 33.3173 43.5256 33.3808 43.5892C33.4444 43.6528 33.5284 43.6917 33.618 43.6992C33.7076 43.7066 33.7969 43.6821 33.8701 43.6299C34.4222 43.0245 34.793 42.276 34.9401 41.4699C35.1348 40.6601 35.1552 39.8182 35.0001 38.9999C34.9001 38.5299 34.1801 38.7299 34.2801 39.1999H34.3001Z" fill="#202020"/>
<path d="M15.5903 39.1999C14.868 39.31 14.1402 39.3801 13.4103 39.4099C12.5702 39.5262 11.7475 39.7445 10.9603 40.0599C9.36751 40.6994 7.94881 41.7068 6.82027 42.9999C6.32027 43.5799 7.16027 44.4299 7.67027 43.8499C8.70661 42.6295 10.0343 41.6905 11.5303 41.1199C12.2505 40.8419 13.0032 40.6571 13.7703 40.5699C14.4873 40.5452 15.2021 40.475 15.9103 40.3599C16.6603 40.1799 16.3403 39.0199 15.5903 39.1999Z" fill="#202020"/>
</svg>
