<svg width="32" height="32" viewBox="0 0 32 32" fill="none" xmlns="http://www.w3.org/2000/svg">
<path fill-rule="evenodd" clip-rule="evenodd" d="M2.18212 7.34493C1.72686 8.14002 1.6617 9.07363 1.53137 10.9408C1.41912 12.5491 1.33398 14.3218 1.33398 15.9992C1.33398 17.6766 1.41912 19.4493 1.53137 21.0575C1.6617 22.9247 1.72686 23.8583 2.18212 24.6534C2.56743 25.3264 3.21418 25.9295 3.9123 26.2671C4.73716 26.6658 5.72548 26.6658 7.70213 26.6658H24.299C26.27 26.6658 27.2554 26.6658 28.0815 26.2656C28.7793 25.9276 29.4285 25.3205 29.8125 24.6469C30.2671 23.8494 30.3295 22.9186 30.4544 21.0571C30.5742 19.2706 30.6673 17.2245 30.6673 15.1787C30.6673 13.5127 30.6056 11.9847 30.518 10.6548C30.4081 8.98683 30.3531 8.15285 29.8988 7.35439C29.5287 6.704 28.8407 6.05984 28.1674 5.73334C27.3408 5.33252 26.4193 5.33252 24.5763 5.33252H7.70213C5.72548 5.33252 4.73716 5.33252 3.9123 5.73131C3.21418 6.06883 2.56743 6.67201 2.18212 7.34493ZM14.648 20.7142C14.3162 20.941 13.8659 20.7034 13.8659 20.3014V11.6167C13.8659 11.214 14.3175 10.9765 14.6493 11.2047L20.9819 15.5607C21.2713 15.7598 21.2706 16.1873 20.9807 16.3855L14.648 20.7142Z" fill="black"/>
</svg>
