<svg width="24" height="24" viewBox="0 0 24 24" fill="none" xmlns="http://www.w3.org/2000/svg">
<path d="M23.8727 18.644C23.8437 18.58 23.8166 18.5269 23.7914 18.4843C23.375 17.7176 22.5793 16.7764 21.4047 15.6606L21.3799 15.6351L21.3675 15.6225L21.3549 15.6097H21.3423C20.8092 15.0901 20.4716 14.7408 20.3303 14.5619C20.0716 14.2212 20.0137 13.8763 20.155 13.5269C20.2549 13.2629 20.6301 12.7053 21.2797 11.8535C21.6213 11.402 21.892 11.0402 22.0918 10.7676C23.5331 8.8085 24.1579 7.55663 23.9662 7.01146L23.8918 6.88407C23.8418 6.80737 23.7127 6.7372 23.5046 6.67321C23.2961 6.60936 23.0296 6.5988 22.7047 6.64135L19.106 6.66677C19.0477 6.64565 18.9644 6.64762 18.856 6.67321C18.7477 6.69881 18.6935 6.71165 18.6935 6.71165L18.6308 6.74365L18.5811 6.78209C18.5395 6.8075 18.4936 6.85221 18.4436 6.91611C18.3938 6.97978 18.3522 7.05451 18.319 7.13967C17.9272 8.17026 17.4817 9.12845 16.9817 10.0142C16.6735 10.5424 16.3904 11.0001 16.1319 11.3876C15.8737 11.7751 15.6571 12.0605 15.4823 12.2435C15.3072 12.4266 15.1492 12.5734 15.0073 12.6842C14.8657 12.7951 14.7575 12.842 14.6826 12.8248C14.6076 12.8077 14.5369 12.7907 14.47 12.7737C14.3534 12.697 14.2597 12.5927 14.189 12.4607C14.118 12.3286 14.0702 12.1625 14.0452 11.9623C14.0203 11.762 14.0056 11.5898 14.0014 11.4449C13.9975 11.3002 13.9993 11.0956 14.0078 10.8316C14.0164 10.5675 14.0203 10.3887 14.0203 10.295C14.0203 9.97132 14.0265 9.62 14.0389 9.24099C14.0515 8.86197 14.0617 8.56167 14.0702 8.34043C14.0787 8.11898 14.0827 7.88468 14.0827 7.63767C14.0827 7.39066 14.068 7.19694 14.0389 7.05635C14.0102 6.91593 13.9661 6.77962 13.908 6.64748C13.8496 6.51548 13.7641 6.41336 13.6519 6.34087C13.5394 6.26847 13.3996 6.21101 13.2333 6.16832C12.7917 6.06616 12.2294 6.0109 11.5462 6.00231C9.99681 5.9853 9.00124 6.0876 8.55972 6.30905C8.38478 6.40262 8.22648 6.53047 8.08494 6.69219C7.93495 6.87964 7.91402 6.98193 8.0223 6.99876C8.52221 7.07532 8.87611 7.25847 9.0844 7.54804L9.15946 7.70148C9.21784 7.81218 9.27614 8.00818 9.33448 8.2892C9.39273 8.57022 9.43033 8.88108 9.44687 9.22161C9.48845 9.84348 9.48845 10.3758 9.44687 10.8186C9.40516 11.2616 9.36577 11.6065 9.32818 11.8535C9.29058 12.1005 9.23439 12.3007 9.15946 12.4539C9.0844 12.6072 9.03446 12.701 9.00942 12.735C8.98443 12.769 8.9636 12.7904 8.94706 12.7988C8.83878 12.8412 8.72616 12.8628 8.60961 12.8628C8.49289 12.8628 8.35134 12.8032 8.18477 12.6839C8.01823 12.5646 7.8454 12.4007 7.66626 12.192C7.48712 11.9832 7.28509 11.6915 7.06009 11.3168C6.83526 10.9421 6.60198 10.4992 6.36039 9.98819L6.1605 9.61759C6.03555 9.37917 5.86486 9.03202 5.64825 8.57644C5.43152 8.12068 5.23995 7.67982 5.07342 7.25395C5.00685 7.07509 4.90684 6.93893 4.77357 6.84522L4.71103 6.80679C4.66945 6.77278 4.60271 6.73667 4.51115 6.69818C4.41945 6.65974 4.32378 6.63218 4.22373 6.61522L0.799884 6.64064C0.450012 6.64064 0.21262 6.72168 0.0876214 6.88353L0.0375958 6.96009C0.0126049 7.00274 0 7.07084 0 7.16459C0 7.25829 0.0249909 7.3733 0.0750165 7.50946C0.574835 8.7105 1.11838 9.8688 1.70564 10.9846C2.29291 12.1003 2.80323 12.9991 3.2363 13.68C3.66946 14.3615 4.11098 15.0047 4.56086 15.6092C5.01075 16.214 5.30854 16.6015 5.45424 16.7718C5.60011 16.9424 5.71469 17.0699 5.79798 17.1551L6.11043 17.4616C6.31036 17.6661 6.60395 17.911 6.99133 18.1962C7.3788 18.4817 7.80776 18.7627 8.27843 19.0397C8.74918 19.3163 9.29684 19.542 9.9217 19.7166C10.5465 19.8913 11.1546 19.9615 11.7461 19.9276H13.1831C13.4746 19.9019 13.6954 19.8082 13.8455 19.6465L13.8952 19.5824C13.9286 19.5316 13.9599 19.4526 13.9888 19.3463C14.018 19.2399 14.0326 19.1226 14.0326 18.995C14.024 18.6289 14.0513 18.2988 14.1136 18.005C14.1759 17.7113 14.2469 17.4898 14.3263 17.3407C14.4056 17.1917 14.4952 17.0659 14.5948 16.964C14.6947 16.8618 14.7659 16.8 14.8076 16.7787C14.8491 16.7572 14.8822 16.7427 14.9072 16.734C15.1072 16.6658 15.3425 16.7318 15.6135 16.9321C15.8842 17.1323 16.1382 17.3794 16.3758 17.6732C16.6132 17.9672 16.8985 18.297 17.2317 18.6632C17.565 19.0295 17.8565 19.3018 18.1063 19.4809L18.3562 19.6342C18.523 19.7365 18.7396 19.8302 19.0062 19.9154C19.2724 20.0005 19.5056 20.0218 19.7058 19.9792L22.9046 19.9282C23.221 19.9282 23.4672 19.8746 23.6418 19.7684C23.8168 19.6619 23.9207 19.5446 23.9543 19.417C23.9877 19.2893 23.9895 19.1444 23.9606 18.9825C23.931 18.8209 23.9018 18.7079 23.8727 18.644Z" fill="#202020"/>
</svg>
