<svg width="25" height="24" viewBox="0 0 25 24" fill="none" xmlns="http://www.w3.org/2000/svg">
<path d="M11.9622 1.01272C6.10469 1.28937 1.48228 6.12812 1.50005 11.9449C1.50546 13.7165 1.93665 15.3887 2.69729 16.8662L1.52944 22.4893C1.46626 22.7935 1.74283 23.0598 2.04746 22.9883L7.60231 21.6828C9.02944 22.388 10.6324 22.7953 12.3289 22.8209C18.3158 22.9116 23.3079 18.1963 23.4945 12.2599C23.6945 5.89657 18.3999 0.708611 11.9622 1.01272ZM18.5903 17.9522C16.9636 19.5659 14.8006 20.4545 12.5 20.4545C11.1529 20.4545 9.86323 20.1547 8.66663 19.5635L7.89304 19.1813L4.48734 19.9816L5.20422 16.5298L4.82311 15.7895C4.20192 14.5828 3.88695 13.2779 3.88695 11.9111C3.88695 9.62904 4.78285 7.48363 6.40963 5.86994C8.02188 4.27072 10.2201 3.36759 12.5002 3.36759C14.8008 3.36765 16.9636 4.25631 18.5904 5.86989C20.2172 7.48353 21.1131 9.62894 21.1131 11.9109C21.1131 14.1726 20.2026 16.3531 18.5903 17.9522Z" fill="#202020"/>
<path d="M17.4478 14.4366L15.4019 13.805C15.1329 13.722 14.8433 13.8041 14.6473 14.0188L14.147 14.5668C13.936 14.7979 13.6159 14.8722 13.3367 14.7507C12.3689 14.3296 10.333 12.3834 9.81311 11.4099C9.66311 11.1291 9.68792 10.778 9.87209 10.5218L10.3089 9.91426C10.48 9.67621 10.5161 9.35652 10.403 9.08135L9.5422 6.98824C9.33603 6.48691 8.74017 6.34097 8.3509 6.69494C7.7799 7.21418 7.1024 8.00322 7.02005 8.87736C6.87484 10.4185 7.48959 12.3613 9.81428 14.6941C12.4999 17.3892 14.6506 17.7452 16.0509 17.3805C16.8451 17.1737 17.4798 16.3445 17.8804 15.6656C18.1535 15.2027 17.9378 14.588 17.4478 14.4366Z" fill="#202020"/>
</svg>
