<svg width="22" height="22" viewBox="0 0 22 22" fill="none" xmlns="http://www.w3.org/2000/svg">
<path d="M10.4622 0.0127228C4.60469 0.28937 -0.0177184 5.12812 5.10601e-05 10.9449C0.00546148 12.7165 0.436651 14.3887 1.19729 15.8662L0.029437 21.4893C-0.0337375 21.7935 0.24283 22.0598 0.547458 21.9883L6.10231 20.6828C7.52944 21.388 9.13241 21.7953 10.8289 21.8209C16.8158 21.9116 21.8079 17.1963 21.9945 11.2599C22.1945 4.89657 16.8999 -0.291389 10.4622 0.0127228ZM17.0903 16.9522C15.4636 18.5659 13.3006 19.4545 11 19.4545C9.65293 19.4545 8.36323 19.1547 7.16663 18.5635L6.39304 18.1813L2.98734 18.9816L3.70422 15.5298L3.32311 14.7895C2.70192 13.5828 2.38695 12.2779 2.38695 10.9111C2.38695 8.62904 3.28285 6.48363 4.90963 4.86994C6.52188 3.27072 8.72011 2.36759 11.0002 2.36759C13.3008 2.36765 15.4636 3.25631 17.0904 4.86989C18.7172 6.48353 19.6131 8.62894 19.6131 10.9109C19.6131 13.1726 18.7026 15.3531 17.0903 16.9522Z" fill="#202020"/>
<path d="M15.9478 13.4366L13.9019 12.805C13.6329 12.722 13.3433 12.8041 13.1473 13.0188L12.647 13.5668C12.436 13.7979 12.1159 13.8722 11.8367 13.7507C10.8689 13.3296 8.83302 11.3834 8.31311 10.4099C8.16311 10.1291 8.18792 9.77805 8.37209 9.52182L8.80888 8.91426C8.98001 8.67621 9.01612 8.35652 8.90295 8.08135L8.0422 5.98824C7.83603 5.48691 7.24017 5.34097 6.8509 5.69494C6.2799 6.21418 5.6024 7.00322 5.52005 7.87736C5.37484 9.41854 5.98959 11.3613 8.31428 13.6941C10.9999 16.3892 13.1506 16.7452 14.5509 16.3805C15.3451 16.1737 15.9798 15.3445 16.3804 14.6656C16.6535 14.2027 16.4378 13.588 15.9478 13.4366Z" fill="#202020"/>
</svg>
