<svg width="24" height="24" viewBox="0 0 24 24" fill="none" xmlns="http://www.w3.org/2000/svg">
<path d="M11.4622 1.01272C5.60469 1.28937 0.982282 6.12812 1.00005 11.9449C1.00546 13.7165 1.43665 15.3887 2.19729 16.8662L1.02944 22.4893C0.966262 22.7935 1.24283 23.0598 1.54746 22.9883L7.10231 21.6828C8.52944 22.388 10.1324 22.7953 11.8289 22.8209C17.8158 22.9116 22.8079 18.1963 22.9945 12.2599C23.1945 5.89657 17.8999 0.708611 11.4622 1.01272ZM18.0903 17.9522C16.4636 19.5659 14.3006 20.4545 12 20.4545C10.6529 20.4545 9.36323 20.1547 8.16663 19.5635L7.39304 19.1813L3.98734 19.9816L4.70422 16.5298L4.32311 15.7895C3.70192 14.5828 3.38695 13.2779 3.38695 11.9111C3.38695 9.62904 4.28285 7.48363 5.90963 5.86994C7.52188 4.27072 9.72011 3.36759 12.0002 3.36759C14.3008 3.36765 16.4636 4.25631 18.0904 5.86989C19.7172 7.48353 20.6131 9.62894 20.6131 11.9109C20.6131 14.1726 19.7026 16.3531 18.0903 17.9522Z" fill="#00473C"/>
<path d="M16.9478 14.4366L14.9019 13.805C14.6329 13.722 14.3433 13.8041 14.1473 14.0188L13.647 14.5668C13.436 14.7979 13.1159 14.8722 12.8367 14.7507C11.8689 14.3296 9.83302 12.3834 9.31311 11.4099C9.16311 11.1291 9.18792 10.778 9.37209 10.5218L9.80888 9.91426C9.98001 9.67621 10.0161 9.35652 9.90295 9.08135L9.0422 6.98824C8.83603 6.48691 8.24017 6.34097 7.8509 6.69494C7.2799 7.21418 6.6024 8.00322 6.52005 8.87736C6.37484 10.4185 6.98959 12.3613 9.31428 14.6941C11.9999 17.3892 14.1506 17.7452 15.5509 17.3805C16.3451 17.1737 16.9798 16.3445 17.3804 15.6656C17.6535 15.2027 17.4378 14.588 16.9478 14.4366Z" fill="#00473C"/>
</svg>
